<?xml version="1.0" standalone="no"?>
<!DOCTYPE svg PUBLIC "-//W3C//DTD SVG 20010904//EN"
 "http://www.w3.org/TR/2001/REC-SVG-20010904/DTD/svg10.dtd">
<svg version="1.0" xmlns="http://www.w3.org/2000/svg"
 width="512.000000pt" height="512.000000pt" viewBox="0 0 512.000000 512.000000"
 preserveAspectRatio="xMidYMid meet">

<g transform="translate(0.000000,512.000000) scale(0.100000,-0.100000)"
fill="#000000" stroke="none">
<path d="M2321 5110 c-497 -48 -990 -251 -1376 -565 -114 -92 -294 -274 -384
-387 -229 -287 -417 -675 -495 -1023 -49 -218 -60 -325 -60 -575 0 -250 11
-357 60 -575 79 -355 272 -749 509 -1040 92 -114 274 -294 387 -384 287 -229
675 -417 1023 -495 218 -49 325 -60 575 -60 250 0 357 11 575 60 261 58 603
204 828 353 389 259 688 599 893 1016 125 255 196 484 241 775 24 161 24 539
0 700 -45 291 -116 520 -241 775 -134 272 -283 480 -498 692 -211 209 -404
346 -673 478 -252 124 -486 197 -765 240 -126 19 -468 27 -599 15z m459 -161
c866 -79 1639 -637 1979 -1432 457 -1063 107 -2282 -842 -2935 -604 -416
-1372 -531 -2071 -311 -847 267 -1469 961 -1640 1829 -217 1100 371 2219 1397
2659 376 162 779 227 1177 190z"/>
<path d="M2223 3582 c-141 -50 -223 -169 -223 -323 l0 -58 -237 -3 c-233 -3
-239 -4 -294 -29 -71 -33 -125 -87 -158 -158 l-26 -56 0 -555 0 -555 26 -56
c33 -71 87 -125 158 -158 l56 -26 1035 0 1035 0 56 26 c71 33 125 87 158 158
l26 56 0 555 0 555 -26 56 c-33 71 -87 125 -158 158 -55 25 -61 26 -292 29
l-237 3 -4 77 c-8 137 -72 237 -187 291 l-56 26 -300 2 c-269 3 -305 1 -352
-15z m663 -168 c53 -39 68 -70 72 -144 l4 -70 -401 0 -401 0 0 54 c0 63 12
101 43 135 45 49 62 51 369 48 272 -2 288 -3 314 -23z m720 -400 c15 -11 37
-33 48 -48 21 -27 21 -38 21 -566 0 -528 0 -539 -21 -566 -11 -15 -33 -37 -48
-48 -27 -21 -33 -21 -1046 -21 -1013 0 -1019 0 -1046 21 -15 11 -37 33 -48 48
-20 27 -21 40 -24 539 -2 282 0 526 3 544 7 40 49 91 90 109 24 11 215 13
1037 11 999 -2 1007 -2 1034 -23z"/>
<path d="M2454 2865 c-89 -19 -160 -59 -231 -131 -188 -187 -187 -481 1 -670
189 -189 483 -189 672 0 188 189 189 483 1 670 -72 73 -142 112 -236 132 -80
17 -127 17 -207 -1z m238 -177 c70 -32 124 -86 157 -157 54 -115 27 -264 -64
-356 -122 -121 -328 -121 -450 0 -78 78 -111 204 -82 306 57 194 259 289 439
207z"/>
<path d="M3386 2854 c-15 -16 -26 -38 -26 -54 0 -35 44 -80 79 -80 54 0 95 66
70 112 -29 54 -81 63 -123 22z"/>
</g>
</svg>
